# xmcd
#
# Track frame offsets: 
#        150
#        11035
#        22136
#        31651
#        43193
#        54647
#        63729
#        72658
#        84490
#        97122
#        107757
#        117891
#        127976
#        138627
#        150599
#        163104
#        176129
#        187389
#        198822
#        210638
#        222778
#        234039
#        245560
#        254680
#        267219
#        278129
#        287985
#        300458
#        309549
#        322189
#        333680
#
# Disc length: 4571 seconds
#
# Revision: 0
# Processed by: cddbd v1.5.2PL0 Copyright (c) Steve Scherf et al.
# Submitted via: ExactAudioCopy v0.95b3
#
DISCID=e211d91f
DTITLE=Various Artist - Boogie Woogie Tennessee
DYEAR=2008
DGENRE=Country
TTITLE0=Dick Stratton and The Nite Owls - Love Love Love
TTITLE1=Dick Stratton and The Nite Owls - If You Want My Lovin'
TTITLE2=Ricky Riddle and His Band - Cold Icy Feet
TTITLE3=Ricky Riddle and His Band - I'm So Lonesome
TTITLE4=Ricky Riddle and His Band - Boogie Woogie Tennessee
TTITLE5=Bob Harmon - Bob's Boogie (Instr.)
TTITLE6=Bob Harmon - Boogie Woogie Jubilee (Instr.)
TTITLE7=Allen Flatt and His Band - I'm Moving On
TTITLE8=Allen Flatt and His Band - Cheat Cheat Cheatin'
TTITLE9=Dick Stratton and The Nite Owls - I Wouldn't Have You On A Chris
TTITLE9=tmas Tree
TTITLE10=Dick Stratton and The Nite Owls - Somebody Robbed My Beehive
TTITLE11=Andy Wilson - Hillbilly Boogie
TTITLE12=Andy Wilson - Lonesome For My Baby
TTITLE13=Big Jeff and His Radio Playboys - Move On Baby
TTITLE14=Big Jeff and His Radio Playboys - I'm In Love
TTITLE15=George Toon and Tennessee Ramblers - Mean Old Boogie
TTITLE16=Billy Hardison and Tennessee Ramblers - Boogie Beat Rag (Instr.
TTITLE16=)
TTITLE17=Buddy Allen and The Nite Owls - Shine, Shave, Shower
TTITLE18=Bob Williams and Band - Hot Rod Race
TTITLE19=Little Joe Arwood (Bob Woods) - Wooden Leg Boogie (Instr.)
TTITLE20=Little Joe Arwood (Bob Woods) - Greasy Corner Boogie (Instr.)
TTITLE21=Dick Stratton and The Nite Owls - Poison Love
TTITLE22=Vaughn Brothers - Was It Worth It In The End
TTITLE23=Helen Carter With Band - There's A Right Way, A Wrong Way
TTITLE24=Randy Hughes and His Band - Tattoed Lady
TTITLE25=Randy Hughes and His Band - It'll Feel So Good
TTITLE26=Gabe Tucker and His Musical Ramblers - You'd Better Do Better B
TTITLE26=aby
TTITLE27=Bob Harmon - Bye Bye Blues Boogie (Instr.)
TTITLE28=Smiley Wilson With Band - Barnyard Blues
TTITLE29=Lee Bond With Band - How About A Date
TTITLE30=Lee Bond With Band - Okee-Fen-O-Kee
EXTD=
EXTT0=
EXTT1=
EXTT2=
EXTT3=
EXTT4=
EXTT5=
EXTT6=
EXTT7=
EXTT8=
EXTT9=
EXTT10=
EXTT11=
EXTT12=
EXTT13=
EXTT14=
EXTT15=
EXTT16=
EXTT17=
EXTT18=
EXTT19=
EXTT20=
EXTT21=
EXTT22=
EXTT23=
EXTT24=
EXTT25=
EXTT26=
EXTT27=
EXTT28=
EXTT29=
EXTT30=
PLAYORDER=
